{
	"asset":{
		"generator":"Khronos glTF Blender I/O v4.0.44",
		"version":"2.0"
	},
	"extensionsUsed":[
		"KHR_materials_specular",
		"KHR_materials_ior"
	],
	"scene":0,
	"scenes":[
		{
			"name":"Scene",
			"nodes":[
				0,
				1,
				2,
				3,
				4,
				5,
				6,
				7,
				8,
				9
			]
		}
	],
	"nodes":[
		{
			"mesh":0,
			"name":"classic_Back"
		},
		{
			"mesh":1,
			"name":"classic_Arm"
		},
		{
			"mesh":2,
			"name":"classic_Cushion"
		},
		{
			"mesh":3,
			"name":"classic_Legs"
		},
		{
			"mesh":4,
			"name":"classic_Seat"
		},
		{
			"mesh":5,
			"name":"mdr_Legs"
		},
		{
			"mesh":6,
			"name":"mdr_Cushion"
		},
		{
			"mesh":7,
			"name":"mdr_Seat"
		},
		{
			"mesh":8,
			"name":"mdr_Back"
		},
		{
			"mesh":9,
			"name":"mdr_Arm"
		}
	],
	"materials":[
		{
			"doubleSided":true,
			"extensions":{
				"KHR_materials_specular":{
					"specularFactor":0
				},
				"KHR_materials_ior":{
					"ior":1.4500000476837158
				}
			},
			"name":"chair",
			"normalTexture":{
				"index":0
			},
			"pbrMetallicRoughness":{
				"baseColorTexture":{
					"index":1
				},
				"metallicFactor":0,
				"metallicRoughnessTexture":{
					"index":2
				}
			}
		}
	],
	"meshes":[
		{
			"name":"Mesh.003",
			"primitives":[
				{
					"attributes":{
						"POSITION":0,
						"NORMAL":1,
						"TEXCOORD_0":2
					},
					"indices":3,
					"material":0
				}
			]
		},
		{
			"name":"Mesh.004",
			"primitives":[
				{
					"attributes":{
						"COLOR_0":4,
						"POSITION":5,
						"NORMAL":6,
						"TEXCOORD_0":7
					},
					"indices":8,
					"material":0
				}
			]
		},
		{
			"name":"Mesh.001",
			"primitives":[
				{
					"attributes":{
						"POSITION":9,
						"NORMAL":10,
						"TEXCOORD_0":11
					},
					"indices":12,
					"material":0
				}
			]
		},
		{
			"name":"Mesh",
			"primitives":[
				{
					"attributes":{
						"POSITION":13,
						"NORMAL":14,
						"TEXCOORD_0":15
					},
					"indices":16,
					"material":0
				}
			]
		},
		{
			"name":"Mesh.002",
			"primitives":[
				{
					"attributes":{
						"POSITION":17,
						"NORMAL":18,
						"TEXCOORD_0":19
					},
					"indices":20,
					"material":0
				}
			]
		},
		{
			"name":"Mesh.012",
			"primitives":[
				{
					"attributes":{
						"POSITION":21,
						"NORMAL":22,
						"TEXCOORD_0":23
					},
					"indices":24,
					"material":0
				}
			]
		},
		{
			"name":"Mesh.013",
			"primitives":[
				{
					"attributes":{
						"POSITION":25,
						"NORMAL":26,
						"TEXCOORD_0":27
					},
					"indices":28,
					"material":0
				}
			]
		},
		{
			"name":"Mesh.015",
			"primitives":[
				{
					"attributes":{
						"POSITION":29,
						"NORMAL":30,
						"TEXCOORD_0":31
					},
					"indices":32,
					"material":0
				}
			]
		},
		{
			"name":"Mesh.017",
			"primitives":[
				{
					"attributes":{
						"POSITION":33,
						"NORMAL":34,
						"TEXCOORD_0":35
					},
					"indices":36,
					"material":0
				}
			]
		},
		{
			"name":"Mesh.018",
			"primitives":[
				{
					"attributes":{
						"POSITION":37,
						"NORMAL":38,
						"TEXCOORD_0":39
					},
					"indices":40,
					"material":0
				}
			]
		}
	],
	"textures":[
		{
			"sampler":0,
			"source":0
		},
		{
			"sampler":0,
			"source":1
		},
		{
			"sampler":0,
			"source":2
		}
	],
	"images":[
		{
			"mimeType":"image/png",
			"name":"chair_Normal",
			"uri":"chair_Normal.png"
		},
		{
			"mimeType":"image/png",
			"name":"chair_Albedo",
			"uri":"chair_Albedo.png"
		},
		{
			"mimeType":"image/png",
			"name":"chair_Roughness",
			"uri":"chair_Roughness.png"
		}
	],
	"accessors":[
		{
			"bufferView":0,
			"componentType":5126,
			"count":592,
			"max":[
				-1.2980200052261353,
				7.968021392822266,
				1.7078851461410522
			],
			"min":[
				-2.0454113483428955,
				3.3892955780029297,
				-1.6983990669250488
			],
			"type":"VEC3"
		},
		{
			"bufferView":1,
			"componentType":5126,
			"count":592,
			"type":"VEC3"
		},
		{
			"bufferView":2,
			"componentType":5126,
			"count":592,
			"type":"VEC2"
		},
		{
			"bufferView":3,
			"componentType":5123,
			"count":1536,
			"type":"SCALAR"
		},
		{
			"bufferView":4,
			"componentType":5123,
			"count":228,
			"normalized":true,
			"type":"VEC4"
		},
		{
			"bufferView":5,
			"componentType":5126,
			"count":228,
			"max":[
				1.4791395664215088,
				5.029465675354004,
				1.9406851530075073
			],
			"min":[
				-1.2955708503723145,
				3.2455813884735107,
				1.633995532989502
			],
			"type":"VEC3"
		},
		{
			"bufferView":6,
			"componentType":5126,
			"count":228,
			"type":"VEC3"
		},
		{
			"bufferView":7,
			"componentType":5126,
			"count":228,
			"type":"VEC2"
		},
		{
			"bufferView":8,
			"componentType":5123,
			"count":540,
			"type":"SCALAR"
		},
		{
			"bufferView":9,
			"componentType":5126,
			"count":521,
			"max":[
				2.0405969619750977,
				3.7504308223724365,
				1.7788118124008179
			],
			"min":[
				-1.2996798753738403,
				3.3894739151000977,
				-1.7776010036468506
			],
			"type":"VEC3"
		},
		{
			"bufferView":10,
			"componentType":5126,
			"count":521,
			"type":"VEC3"
		},
		{
			"bufferView":11,
			"componentType":5126,
			"count":521,
			"type":"VEC2"
		},
		{
			"bufferView":12,
			"componentType":5123,
			"count":2508,
			"type":"SCALAR"
		},
		{
			"bufferView":13,
			"componentType":5126,
			"count":128,
			"max":[
				1.711216926574707,
				3.3892955780029297,
				1.707885503768921
			],
			"min":[
				-1.8441879749298096,
				1.094246908905916e-05,
				-1.698399305343628
			],
			"type":"VEC3"
		},
		{
			"bufferView":14,
			"componentType":5126,
			"count":128,
			"type":"VEC3"
		},
		{
			"bufferView":15,
			"componentType":5126,
			"count":128,
			"type":"VEC2"
		},
		{
			"bufferView":16,
			"componentType":5123,
			"count":264,
			"type":"SCALAR"
		},
		{
			"bufferView":17,
			"componentType":5126,
			"count":24,
			"max":[
				1.6364202499389648,
				3.3858933448791504,
				1.636420726776123
			],
			"min":[
				-1.281555414199829,
				2.901118278503418,
				-1.6280490159988403
			],
			"type":"VEC3"
		},
		{
			"bufferView":18,
			"componentType":5126,
			"count":24,
			"type":"VEC3"
		},
		{
			"bufferView":19,
			"componentType":5126,
			"count":24,
			"type":"VEC2"
		},
		{
			"bufferView":20,
			"componentType":5123,
			"count":36,
			"type":"SCALAR"
		},
		{
			"bufferView":21,
			"componentType":5126,
			"count":468,
			"max":[
				1.7074307203292847,
				3.4724652767181396,
				2.310126543045044
			],
			"min":[
				-3.1227290630340576,
				-0.004060653038322926,
				-2.310126543045044
			],
			"type":"VEC3"
		},
		{
			"bufferView":22,
			"componentType":5126,
			"count":468,
			"type":"VEC3"
		},
		{
			"bufferView":23,
			"componentType":5126,
			"count":468,
			"type":"VEC2"
		},
		{
			"bufferView":24,
			"componentType":5123,
			"count":2772,
			"type":"SCALAR"
		},
		{
			"bufferView":25,
			"componentType":5126,
			"count":130,
			"max":[
				2.1633057594299316,
				3.6693990230560303,
				2.014946937561035
			],
			"min":[
				-2.1633057594299316,
				3.4508256912231445,
				-2.014946937561035
			],
			"type":"VEC3"
		},
		{
			"bufferView":26,
			"componentType":5126,
			"count":130,
			"type":"VEC3"
		},
		{
			"bufferView":27,
			"componentType":5126,
			"count":130,
			"type":"VEC2"
		},
		{
			"bufferView":28,
			"componentType":5123,
			"count":768,
			"type":"SCALAR"
		},
		{
			"bufferView":29,
			"componentType":5126,
			"count":62,
			"max":[
				2.210048198699951,
				3.4549849033355713,
				2.099348545074463
			],
			"min":[
				-2.210048198699951,
				3.1634833812713623,
				-2.099348545074463
			],
			"type":"VEC3"
		},
		{
			"bufferView":30,
			"componentType":5126,
			"count":62,
			"type":"VEC3"
		},
		{
			"bufferView":31,
			"componentType":5126,
			"count":62,
			"type":"VEC2"
		},
		{
			"bufferView":32,
			"componentType":5123,
			"count":360,
			"type":"SCALAR"
		},
		{
			"bufferView":33,
			"componentType":5126,
			"count":2616,
			"max":[
				0.09765862673521042,
				8.141091346740723,
				1.6278932094573975
			],
			"min":[
				-2.067120313644409,
				2.883114814758301,
				-1.6278927326202393
			],
			"type":"VEC3"
		},
		{
			"bufferView":34,
			"componentType":5126,
			"count":2616,
			"type":"VEC3"
		},
		{
			"bufferView":35,
			"componentType":5126,
			"count":2616,
			"type":"VEC2"
		},
		{
			"bufferView":36,
			"componentType":5123,
			"count":6120,
			"type":"SCALAR"
		},
		{
			"bufferView":37,
			"componentType":5126,
			"count":300,
			"max":[
				-0.10743312537670135,
				5.3889288902282715,
				2.0132787227630615
			],
			"min":[
				-2.06712007522583,
				3.372657537460327,
				-2.0132787227630615
			],
			"type":"VEC3"
		},
		{
			"bufferView":38,
			"componentType":5126,
			"count":300,
			"type":"VEC3"
		},
		{
			"bufferView":39,
			"componentType":5126,
			"count":300,
			"type":"VEC2"
		},
		{
			"bufferView":40,
			"componentType":5123,
			"count":1728,
			"type":"SCALAR"
		}
	],
	"bufferViews":[
		{
			"buffer":0,
			"byteLength":7104,
			"byteOffset":0,
			"target":34962
		},
		{
			"buffer":0,
			"byteLength":7104,
			"byteOffset":7104,
			"target":34962
		},
		{
			"buffer":0,
			"byteLength":4736,
			"byteOffset":14208,
			"target":34962
		},
		{
			"buffer":0,
			"byteLength":3072,
			"byteOffset":18944,
			"target":34963
		},
		{
			"buffer":0,
			"byteLength":1824,
			"byteOffset":22016,
			"target":34962
		},
		{
			"buffer":0,
			"byteLength":2736,
			"byteOffset":23840,
			"target":34962
		},
		{
			"buffer":0,
			"byteLength":2736,
			"byteOffset":26576,
			"target":34962
		},
		{
			"buffer":0,
			"byteLength":1824,
			"byteOffset":29312,
			"target":34962
		},
		{
			"buffer":0,
			"byteLength":1080,
			"byteOffset":31136,
			"target":34963
		},
		{
			"buffer":0,
			"byteLength":6252,
			"byteOffset":32216,
			"target":34962
		},
		{
			"buffer":0,
			"byteLength":6252,
			"byteOffset":38468,
			"target":34962
		},
		{
			"buffer":0,
			"byteLength":4168,
			"byteOffset":44720,
			"target":34962
		},
		{
			"buffer":0,
			"byteLength":5016,
			"byteOffset":48888,
			"target":34963
		},
		{
			"buffer":0,
			"byteLength":1536,
			"byteOffset":53904,
			"target":34962
		},
		{
			"buffer":0,
			"byteLength":1536,
			"byteOffset":55440,
			"target":34962
		},
		{
			"buffer":0,
			"byteLength":1024,
			"byteOffset":56976,
			"target":34962
		},
		{
			"buffer":0,
			"byteLength":528,
			"byteOffset":58000,
			"target":34963
		},
		{
			"buffer":0,
			"byteLength":288,
			"byteOffset":58528,
			"target":34962
		},
		{
			"buffer":0,
			"byteLength":288,
			"byteOffset":58816,
			"target":34962
		},
		{
			"buffer":0,
			"byteLength":192,
			"byteOffset":59104,
			"target":34962
		},
		{
			"buffer":0,
			"byteLength":72,
			"byteOffset":59296,
			"target":34963
		},
		{
			"buffer":0,
			"byteLength":5616,
			"byteOffset":59368,
			"target":34962
		},
		{
			"buffer":0,
			"byteLength":5616,
			"byteOffset":64984,
			"target":34962
		},
		{
			"buffer":0,
			"byteLength":3744,
			"byteOffset":70600,
			"target":34962
		},
		{
			"buffer":0,
			"byteLength":5544,
			"byteOffset":74344,
			"target":34963
		},
		{
			"buffer":0,
			"byteLength":1560,
			"byteOffset":79888,
			"target":34962
		},
		{
			"buffer":0,
			"byteLength":1560,
			"byteOffset":81448,
			"target":34962
		},
		{
			"buffer":0,
			"byteLength":1040,
			"byteOffset":83008,
			"target":34962
		},
		{
			"buffer":0,
			"byteLength":1536,
			"byteOffset":84048,
			"target":34963
		},
		{
			"buffer":0,
			"byteLength":744,
			"byteOffset":85584,
			"target":34962
		},
		{
			"buffer":0,
			"byteLength":744,
			"byteOffset":86328,
			"target":34962
		},
		{
			"buffer":0,
			"byteLength":496,
			"byteOffset":87072,
			"target":34962
		},
		{
			"buffer":0,
			"byteLength":720,
			"byteOffset":87568,
			"target":34963
		},
		{
			"buffer":0,
			"byteLength":31392,
			"byteOffset":88288,
			"target":34962
		},
		{
			"buffer":0,
			"byteLength":31392,
			"byteOffset":119680,
			"target":34962
		},
		{
			"buffer":0,
			"byteLength":20928,
			"byteOffset":151072,
			"target":34962
		},
		{
			"buffer":0,
			"byteLength":12240,
			"byteOffset":172000,
			"target":34963
		},
		{
			"buffer":0,
			"byteLength":3600,
			"byteOffset":184240,
			"target":34962
		},
		{
			"buffer":0,
			"byteLength":3600,
			"byteOffset":187840,
			"target":34962
		},
		{
			"buffer":0,
			"byteLength":2400,
			"byteOffset":191440,
			"target":34962
		},
		{
			"buffer":0,
			"byteLength":3456,
			"byteOffset":193840,
			"target":34963
		}
	],
	"samplers":[
		{
			"magFilter":9729,
			"minFilter":9987
		}
	],
	"buffers":[
		{
			"byteLength":197296,
			"uri":"chairs_2.bin"
		}
	]
}
